<?xml version="1.0" standalone="no"?>
<!DOCTYPE svg PUBLIC "-//W3C//DTD SVG 20010904//EN"
 "http://www.w3.org/TR/2001/REC-SVG-20010904/DTD/svg10.dtd">
<svg version="1.0" xmlns="http://www.w3.org/2000/svg"
 width="654.000000pt" height="688.000000pt" viewBox="0 0 654.000000 688.000000"
 preserveAspectRatio="xMidYMid meet">

<g transform="translate(0.000000,688.000000) scale(0.100000,-0.100000)"
fill="#000000" stroke="none">
<path d="M1682 4913 c3 -703 4 -748 21 -751 16 -3 17 37 17 727 l0 731 1435 0
1435 0 0 -731 c0 -690 1 -730 18 -727 16 3 17 48 20 751 l2 747 -1475 0 -1475
0 2 -747z"/>
<path d="M3128 5178 c-2 -14 -9 -22 -18 -19 -68 17 -85 18 -128 7 -26 -7 -66
-23 -89 -34 -23 -12 -56 -22 -72 -22 -35 0 -46 -13 -31 -37 9 -14 -2 -57 -59
-214 -39 -108 -71 -202 -71 -208 0 -24 68 -41 165 -41 100 0 165 17 165 43 0
16 -31 106 -98 285 l-50 134 62 29 c78 36 140 46 186 27 l34 -14 -2 -150 c-1
-82 -5 -218 -8 -302 l-7 -152 -45 -20 c-24 -11 -52 -20 -61 -20 -14 0 -41 -40
-41 -62 0 -4 82 -8 181 -8 l181 0 -6 23 c-3 12 -6 27 -6 33 0 7 -12 14 -27 17
-16 3 -45 11 -65 19 l-38 13 0 87 c0 48 -4 90 -10 93 -6 4 -8 67 -4 169 4 109
2 177 -6 206 -14 54 -3 67 63 76 40 6 61 1 132 -27 47 -19 85 -40 85 -46 0 -7
-12 -43 -26 -80 -68 -178 -120 -333 -115 -341 16 -24 57 -32 161 -32 80 0 119
4 140 15 17 9 30 17 30 19 0 7 -122 344 -137 378 -13 30 -13 41 -4 52 17 20 7
33 -26 34 -15 0 -58 15 -94 32 -69 32 -107 38 -176 26 -39 -7 -43 -6 -43 13 0
28 -18 27 -22 -1z m-168 -511 c-4 -4 -34 -7 -66 -5 l-59 3 1 38 c0 20 1 103 3
185 l2 147 63 -180 c35 -99 60 -184 56 -188z m-142 167 l-3 -169 -69 -3 c-53
-2 -67 0 -64 10 3 7 32 88 64 180 33 91 62 163 67 159 4 -4 6 -84 5 -177z
m632 6 l0 -180 -65 0 c-45 0 -65 4 -65 13 0 13 122 347 127 347 2 0 3 -81 3
-180z m90 10 c75 -210 76 -192 -6 -188 l-69 3 2 170 c1 94 2 172 3 175 2 18
26 -36 70 -160z"/>
<path d="M537 3864 c-4 -4 -7 -173 -7 -376 l0 -368 226 0 225 0 -3 38 -3 37
-172 0 c-94 0 -174 3 -178 7 -4 3 -8 154 -8 335 l-2 328 -35 3 c-20 2 -39 0
-43 -4z"/>
<path d="M1513 3858 c-6 -7 -74 -161 -153 -343 -78 -181 -148 -345 -156 -362
l-14 -33 45 0 c25 0 45 1 45 3 0 1 22 56 49 122 l48 120 185 3 184 2 28 -72
c16 -40 39 -97 52 -125 22 -52 24 -53 65 -53 34 0 41 3 37 18 -8 29 -300 706
-311 720 -5 6 -29 12 -52 12 -23 0 -47 -6 -52 -12z m72 -100 c4 -13 31 -81 61
-153 29 -71 54 -137 56 -145 3 -13 -19 -15 -139 -16 -94 -1 -143 2 -143 9 0 6
24 69 54 141 30 72 59 143 65 159 13 33 37 35 46 5z"/>
<path d="M2040 3865 c0 -3 20 -51 44 -108 24 -56 92 -222 152 -369 l108 -268
58 0 c56 0 59 1 73 33 32 70 285 699 285 708 0 6 -19 9 -42 7 l-41 -3 -123
-315 c-68 -173 -125 -323 -127 -332 -7 -25 -25 -22 -38 5 -6 12 -65 162 -133
332 l-123 310 -46 3 c-26 2 -47 1 -47 -3z"/>
<path d="M2997 3863 c-4 -3 -7 -172 -7 -375 l0 -368 45 0 45 0 0 375 0 375
-38 0 c-21 0 -42 -3 -45 -7z"/>
<path d="M3636 3861 c-12 -19 -316 -726 -316 -734 0 -4 19 -7 42 -5 l42 3 49
123 49 122 183 0 182 0 51 -122 50 -123 47 -3 c36 -2 46 0 42 10 -3 7 -76 175
-161 373 l-156 360 -49 3 c-27 2 -52 -1 -55 -7z m85 -138 c12 -32 42 -105 66
-162 24 -57 41 -106 38 -110 -9 -9 -275 -10 -280 0 -3 4 15 54 39 111 25 56
54 129 66 161 12 31 27 57 35 57 7 0 23 -26 36 -57z"/>
<path d="M4290 3495 l0 -375 41 0 41 0 -4 320 c-2 176 0 320 4 320 4 0 23 -21
43 -47 20 -27 134 -171 253 -320 l217 -273 48 0 47 0 0 375 0 375 -40 0 -41 0
1 -316 c1 -174 -1 -318 -3 -321 -3 -2 -20 15 -38 39 -69 89 -355 446 -416 521
-63 75 -66 77 -109 77 l-44 0 0 -375z"/>
<path d="M5230 3835 l0 -35 115 0 115 0 0 -340 0 -340 43 0 42 0 0 337 0 338
118 3 118 3 -3 32 -3 32 -272 3 -273 2 0 -35z"/>
<path d="M1680 2160 l0 -750 1475 0 1475 0 0 750 c0 743 0 750 -20 750 -20 0
-20 -7 -20 -730 l0 -730 -1435 0 -1435 0 0 730 c0 723 0 730 -20 730 -20 0
-20 -7 -20 -750z"/>
<path d="M2163 2123 c-18 -7 -16 -30 3 -37 9 -3 456 -6 994 -6 878 0 979 2
991 16 10 13 10 17 -2 25 -14 9 -1963 12 -1986 2z"/>
</g>
</svg>
